<svg width="157" height="32" viewBox="0 0 157 32" fill="none" xmlns="http://www.w3.org/2000/svg">
<g clip-path="url(#clip0_119_243)">
<path d="M18.7004 -0.187256V10.6702C15.3165 12.0818 11.159 15.1271 9.13306 21.7028V2.65099L18.7004 -0.187256Z" fill="#215FFF"/>
<path d="M38.5191 1.0127V8.66002C36.4903 15.2329 32.3367 18.2773 28.9518 19.687C27.5527 20.2744 26.0767 20.6648 24.5673 20.8467C25.7732 20.6637 26.8746 20.0663 27.6769 19.1603C28.4793 18.2542 28.9308 17.0977 28.9518 15.8952C28.9518 15.8671 28.9518 15.8362 28.9518 15.8071C28.9518 15.7781 28.9518 15.7472 28.9518 15.7191V3.85L38.5191 1.0127Z" fill="#215FFF"/>
<path d="M38.5505 9.7417V28.7514L28.9832 31.5887V20.7687C32.368 19.3589 36.5216 16.3146 38.5505 9.7417Z" fill="#215FFF"/>
<path d="M28.9518 15.7189V15.895C28.9309 17.0975 28.4793 18.254 27.677 19.1601C26.8746 20.0662 25.7732 20.6635 24.5673 20.8465L24.516 20.8531C24.2642 20.8793 24.0703 20.8915 23.9458 20.8999H23.8964H23.8508C23.8042 20.8999 23.7795 20.8999 23.7795 20.8999C22.4886 20.8814 21.2514 20.3878 20.3109 19.5161C19.3704 18.6443 18.7945 17.4574 18.6964 16.1885C18.5983 14.9196 18.985 13.6603 19.7807 12.6581C20.5763 11.656 21.7234 10.9832 22.9965 10.7721L23.0469 10.7656C23.292 10.7394 23.484 10.7272 23.6085 10.7188H23.6588C23.7396 10.7188 23.7833 10.7188 23.7833 10.7188C25.1374 10.7192 26.4373 11.2432 27.4037 12.1782C28.3701 13.1131 28.926 14.3844 28.9518 15.7189V15.7189Z" fill="#215FFF"/>
<path d="M23.0421 10.7609C23.2279 10.732 23.4156 10.7163 23.6037 10.7141C23.4792 10.7225 23.2873 10.7347 23.0421 10.7609Z" fill="url(#paint0_linear_119_243)"/>
<path d="M23.9468 20.8999C24.0722 20.8914 24.2661 20.8793 24.5169 20.853C24.3282 20.8818 24.1377 20.8975 23.9468 20.8999V20.8999Z" fill="url(#paint1_linear_119_243)"/>
<path d="M23.0811 10.7722C21.86 10.9576 20.7465 11.5677 19.9419 12.492C19.1374 13.4163 18.695 14.5938 18.6946 15.8117V27.7267L9.12256 30.565V22.9598C11.1485 16.3841 15.306 13.3388 18.6899 11.9272C20.0909 11.3398 21.5694 10.9509 23.0811 10.7722V10.7722Z" fill="#215FFF"/>
</g>
<path d="M56.8217 21V11.5455H58.8207V15.4464H62.8786V11.5455H64.8729V21H62.8786V17.0945H58.8207V21H56.8217ZM70.391 21.1339C69.9386 21.1339 69.5355 21.0554 69.1815 20.8984C68.8276 20.7384 68.5475 20.503 68.3413 20.1921C68.1382 19.8782 68.0366 19.4873 68.0366 19.0195C68.0366 18.6256 68.109 18.2947 68.2536 18.027C68.3983 17.7592 68.5952 17.5438 68.8445 17.3807C69.0938 17.2176 69.377 17.0945 69.6939 17.0114C70.014 16.9283 70.3495 16.8698 70.7003 16.8359C71.1127 16.7929 71.4451 16.7528 71.6975 16.7159C71.9499 16.6759 72.133 16.6174 72.2469 16.5405C72.3607 16.4635 72.4177 16.3497 72.4177 16.1989V16.1712C72.4177 15.8788 72.3253 15.6526 72.1407 15.4925C71.9591 15.3325 71.7006 15.2525 71.3651 15.2525C71.0112 15.2525 70.7296 15.331 70.5203 15.4879C70.311 15.6418 70.1725 15.8357 70.1048 16.0696L68.2859 15.9219C68.3783 15.491 68.5598 15.1186 68.8307 14.8047C69.1015 14.4877 69.4508 14.2446 69.8786 14.0753C70.3095 13.9029 70.8081 13.8168 71.3743 13.8168C71.7683 13.8168 72.1453 13.8629 72.5054 13.9553C72.8685 14.0476 73.1902 14.1907 73.4702 14.3846C73.7534 14.5785 73.9765 14.8278 74.1396 15.1325C74.3027 15.4341 74.3843 15.7957 74.3843 16.2173V21H72.5192V20.0167H72.4638C72.35 20.2383 72.1976 20.4337 72.0068 20.603C71.816 20.7692 71.5867 20.9 71.3189 20.9954C71.0512 21.0877 70.7419 21.1339 70.391 21.1339ZM70.9542 19.7766C71.2435 19.7766 71.499 19.7197 71.7206 19.6058C71.9422 19.4889 72.1161 19.3319 72.2422 19.1349C72.3684 18.938 72.4315 18.7148 72.4315 18.4656V17.7131C72.37 17.7531 72.2853 17.79 72.1776 17.8239C72.073 17.8546 71.9545 17.8839 71.8221 17.9116C71.6898 17.9362 71.5575 17.9593 71.4251 17.9808C71.2928 17.9993 71.1728 18.0162 71.065 18.0316C70.8342 18.0655 70.6326 18.1193 70.4603 18.1932C70.2879 18.267 70.1541 18.3671 70.0587 18.4933C69.9632 18.6164 69.9155 18.7702 69.9155 18.9549C69.9155 19.2227 70.0125 19.4273 70.2064 19.5689C70.4033 19.7074 70.6526 19.7766 70.9542 19.7766ZM77.832 21V11.5455H79.7986V15.1001H79.8586C79.9448 14.9093 80.0694 14.7154 80.2325 14.5185C80.3987 14.3184 80.6142 14.1522 80.8788 14.0199C81.1466 13.8845 81.479 13.8168 81.876 13.8168C82.393 13.8168 82.8701 13.9522 83.3071 14.223C83.7441 14.4908 84.0934 14.8955 84.3551 15.4371C84.6167 15.9757 84.7475 16.6513 84.7475 17.4638C84.7475 18.2547 84.6197 18.9226 84.3643 19.4673C84.1119 20.009 83.7672 20.4199 83.3302 20.6999C82.8962 20.9769 82.41 21.1154 81.8714 21.1154C81.4898 21.1154 81.1651 21.0523 80.8973 20.9261C80.6326 20.8 80.4157 20.6415 80.2464 20.4506C80.0771 20.2567 79.9479 20.0613 79.8586 19.8643H79.7709V21H77.832ZM79.757 17.4545C79.757 17.8762 79.8155 18.244 79.9325 18.5579C80.0494 18.8718 80.2187 19.1165 80.4403 19.2919C80.6619 19.4643 80.9312 19.5504 81.2482 19.5504C81.5682 19.5504 81.8391 19.4627 82.0607 19.2873C82.2823 19.1088 82.45 18.8626 82.5639 18.5487C82.6808 18.2317 82.7393 17.867 82.7393 17.4545C82.7393 17.0452 82.6823 16.6851 82.5685 16.3743C82.4546 16.0634 82.2869 15.8203 82.0653 15.6449C81.8437 15.4695 81.5713 15.3817 81.2482 15.3817C80.9281 15.3817 80.6573 15.4664 80.4357 15.6357C80.2171 15.8049 80.0494 16.045 79.9325 16.3558C79.8155 16.6667 79.757 17.0329 79.757 17.4545ZM87.9447 21V13.9091H89.9113V21H87.9447ZM88.9326 12.995C88.6402 12.995 88.3894 12.8981 88.1801 12.7042C87.9739 12.5072 87.8708 12.2718 87.8708 11.9979C87.8708 11.727 87.9739 11.4947 88.1801 11.3008C88.3894 11.1038 88.6402 11.0053 88.9326 11.0053C89.225 11.0053 89.4743 11.1038 89.6805 11.3008C89.8898 11.4947 89.9944 11.727 89.9944 11.9979C89.9944 12.2718 89.8898 12.5072 89.6805 12.7042C89.4743 12.8981 89.225 12.995 88.9326 12.995ZM97.1433 13.9091V15.3864H92.8731V13.9091H97.1433ZM93.8426 12.2102H95.8092V18.821C95.8092 19.0026 95.8369 19.1442 95.8923 19.2457C95.9477 19.3442 96.0246 19.4135 96.1231 19.4535C96.2247 19.4935 96.3416 19.5135 96.4739 19.5135C96.5663 19.5135 96.6586 19.5058 96.7509 19.4904C96.8433 19.4719 96.9141 19.4581 96.9633 19.4489L97.2726 20.9123C97.1741 20.9431 97.0356 20.9785 96.8571 21.0185C96.6786 21.0616 96.4616 21.0877 96.2062 21.0969C95.7322 21.1154 95.3168 21.0523 94.9597 20.9077C94.6058 20.763 94.3304 20.5384 94.1334 20.2337C93.9364 19.929 93.8395 19.5443 93.8426 19.0795V12.2102ZM100.499 21V11.5455H102.465V15.1001H102.525C102.611 14.9093 102.736 14.7154 102.899 14.5185C103.065 14.3184 103.281 14.1522 103.546 14.0199C103.813 13.8845 104.146 13.8168 104.543 13.8168C105.06 13.8168 105.537 13.9522 105.974 14.223C106.411 14.4908 106.76 14.8955 107.022 15.4371C107.283 15.9757 107.414 16.6513 107.414 17.4638C107.414 18.2547 107.286 18.9226 107.031 19.4673C106.779 20.009 106.434 20.4199 105.997 20.6999C105.563 20.9769 105.077 21.1154 104.538 21.1154C104.156 21.1154 103.832 21.0523 103.564 20.9261C103.299 20.8 103.082 20.6415 102.913 20.4506C102.744 20.2567 102.615 20.0613 102.525 19.8643H102.438V21H100.499ZM102.424 17.4545C102.424 17.8762 102.482 18.244 102.599 18.5579C102.716 18.8718 102.885 19.1165 103.107 19.2919C103.329 19.4643 103.598 19.5504 103.915 19.5504C104.235 19.5504 104.506 19.4627 104.727 19.2873C104.949 19.1088 105.117 18.8626 105.231 18.5487C105.348 18.2317 105.406 17.867 105.406 17.4545C105.406 17.0452 105.349 16.6851 105.235 16.3743C105.121 16.0634 104.954 15.8203 104.732 15.6449C104.51 15.4695 104.238 15.3817 103.915 15.3817C103.595 15.3817 103.324 15.4664 103.102 15.6357C102.884 15.8049 102.716 16.045 102.599 16.3558C102.482 16.6667 102.424 17.0329 102.424 17.4545ZM110.611 21V13.9091H112.578V21H110.611ZM111.599 12.995C111.307 12.995 111.056 12.8981 110.847 12.7042C110.641 12.5072 110.538 12.2718 110.538 11.9979C110.538 11.727 110.641 11.4947 110.847 11.3008C111.056 11.1038 111.307 11.0053 111.599 11.0053C111.892 11.0053 112.141 11.1038 112.347 11.3008C112.556 11.4947 112.661 11.727 112.661 11.9979C112.661 12.2718 112.556 12.5072 112.347 12.7042C112.141 12.8981 111.892 12.995 111.599 12.995ZM119.81 13.9091V15.3864H115.54V13.9091H119.81ZM116.509 12.2102H118.476V18.821C118.476 19.0026 118.504 19.1442 118.559 19.2457C118.614 19.3442 118.691 19.4135 118.79 19.4535C118.891 19.4935 119.008 19.5135 119.141 19.5135C119.233 19.5135 119.325 19.5058 119.418 19.4904C119.51 19.4719 119.581 19.4581 119.63 19.4489L119.939 20.9123C119.841 20.9431 119.702 20.9785 119.524 21.0185C119.345 21.0616 119.128 21.0877 118.873 21.0969C118.399 21.1154 117.983 21.0523 117.626 20.9077C117.273 20.763 116.997 20.5384 116.8 20.2337C116.603 19.929 116.506 19.5443 116.509 19.0795V12.2102ZM126.131 21.1385C125.402 21.1385 124.774 20.9908 124.248 20.6953C123.725 20.3968 123.322 19.9751 123.038 19.4304C122.755 18.8826 122.614 18.2347 122.614 17.4869C122.614 16.7575 122.755 16.1173 123.038 15.5664C123.322 15.0155 123.72 14.5862 124.234 14.2784C124.751 13.9706 125.357 13.8168 126.053 13.8168C126.521 13.8168 126.956 13.8922 127.359 14.043C127.766 14.1907 128.12 14.4138 128.421 14.7124C128.726 15.0109 128.963 15.3864 129.132 15.8388C129.301 16.2881 129.386 16.8144 129.386 17.4176V17.9577H123.399V16.739H127.535C127.535 16.4558 127.473 16.205 127.35 15.9865C127.227 15.768 127.056 15.5972 126.838 15.4741C126.622 15.3479 126.372 15.2848 126.085 15.2848C125.787 15.2848 125.522 15.354 125.291 15.4925C125.064 15.628 124.885 15.8111 124.756 16.0419C124.627 16.2696 124.56 16.5236 124.557 16.8036V17.9624C124.557 18.3132 124.622 18.6164 124.751 18.8718C124.884 19.1272 125.07 19.3242 125.31 19.4627C125.55 19.6012 125.834 19.6705 126.164 19.6705C126.382 19.6705 126.582 19.6397 126.764 19.5781C126.946 19.5166 127.101 19.4242 127.23 19.3011C127.359 19.178 127.458 19.0272 127.526 18.8487L129.345 18.9688C129.252 19.4058 129.063 19.7874 128.777 20.1136C128.494 20.4368 128.127 20.6892 127.678 20.8707C127.232 21.0492 126.716 21.1385 126.131 21.1385ZM138.454 15.9311L136.654 16.0419C136.623 15.888 136.557 15.7495 136.455 15.6264C136.354 15.5002 136.22 15.4002 136.054 15.3263C135.891 15.2494 135.695 15.2109 135.467 15.2109C135.163 15.2109 134.906 15.2756 134.697 15.4048C134.487 15.531 134.383 15.7003 134.383 15.9126C134.383 16.0819 134.45 16.225 134.586 16.342C134.721 16.4589 134.954 16.5528 135.283 16.6236L136.566 16.8821C137.256 17.0237 137.77 17.2514 138.108 17.5653C138.447 17.8793 138.616 18.2917 138.616 18.8026C138.616 19.2673 138.479 19.6751 138.205 20.0259C137.934 20.3768 137.562 20.6507 137.088 20.8477C136.617 21.0415 136.074 21.1385 135.458 21.1385C134.52 21.1385 133.772 20.9431 133.215 20.5522C132.661 20.1583 132.336 19.6228 132.241 18.9457L134.175 18.8441C134.233 19.1303 134.375 19.3488 134.6 19.4996C134.824 19.6474 135.112 19.7212 135.463 19.7212C135.808 19.7212 136.085 19.6551 136.294 19.5227C136.506 19.3873 136.614 19.2134 136.617 19.0011C136.614 18.8226 136.539 18.6764 136.391 18.5625C136.243 18.4455 136.015 18.3563 135.708 18.2947L134.48 18.0501C133.787 17.9116 133.272 17.6715 132.933 17.3299C132.598 16.9883 132.43 16.5528 132.43 16.0234C132.43 15.5679 132.553 15.1755 132.799 14.8462C133.048 14.5169 133.398 14.263 133.847 14.0845C134.3 13.906 134.829 13.8168 135.435 13.8168C136.331 13.8168 137.036 14.006 137.55 14.3846C138.067 14.7631 138.368 15.2786 138.454 15.9311Z" fill="#202C4B"/>
<defs>
<linearGradient id="paint0_linear_119_243" x1="23.3224" y1="10.7094" x2="23.3234" y2="10.8012" gradientUnits="userSpaceOnUse">
<stop/>
<stop offset="1" stop-color="#4F4F4F"/>
</linearGradient>
<linearGradient id="paint1_linear_119_243" x1="24.23" y1="20.8483" x2="24.2309" y2="20.9392" gradientUnits="userSpaceOnUse">
<stop/>
<stop offset="1" stop-color="#4F4F4F"/>
</linearGradient>
<clipPath id="clip0_119_243">
<rect width="48" height="32" fill="white"/>
</clipPath>
</defs>
</svg>
