<svg width="1920" height="703" viewBox="0 0 1920 703" fill="none" xmlns="http://www.w3.org/2000/svg">
<path d="M-16.7996 575.48C11.3196 546.508 45.5579 524.336 75.9865 497.595C157 430.5 201.5 387.5 289 345.5C335.398 323.229 386.649 299.212 436.071 284.548C495.465 266.926 557.319 262.678 618.965 262.429C735.495 261.957 844.369 299.559 953.67 335.424C1013.6 355.088 1075.63 366.679 1137.61 377.8C1198.62 388.747 1260.25 399.479 1322.02 405.042C1379.2 410.192 1437.9 412.539 1495.02 405.042C1544.84 398.504 1594.78 388.055 1643.57 376.17C1687.28 365.522 1732.93 350.143 1768.37 321.453C1814.37 284.215 1847.84 229.36 1886.89 185.476C1936.09 130.175 1995.99 86.4942 2063.84 57.4148C2118 34.204 2176.41 21.6775 2231.72 1.30078" stroke="#215FFF" stroke-opacity="0.5" stroke-width="2" stroke-linecap="round"/>
<path d="M-6.32202 701.213C4.47299 686.743 16.2859 673.418 30.0007 661.63C49.3079 645.036 71.2086 636.069 94.2641 625.54C166.707 592.458 241.504 565.356 313.83 531.939C392.989 495.366 469.742 459.619 557.146 447.419C613.792 439.512 670.287 432.32 727.584 432.983C802.346 433.848 874.157 454.435 945.753 473.846C1036.09 498.339 1128.23 514.359 1220.04 532.172C1311.08 549.837 1401.36 571.207 1491.99 590.847C1644.29 623.852 1799.71 648.393 1954.99 662.329C2051.44 670.984 2150.86 667.372 2241.26 628.567C2307.97 599.938 2367.7 556.277 2423.23 510.285C2487.09 457.39 2547.74 400.904 2608.92 344.97" stroke="#215FFF" stroke-opacity="0.5" stroke-width="2" stroke-linecap="round"/>
</svg>
